<?xml version="1.0" encoding="UTF-8" standalone="no" ?>
<!DOCTYPE svg PUBLIC "-//W3C//DTD SVG 1.1//EN" "http://www.w3.org/Graphics/SVG/1.1/DTD/svg11.dtd">
<svg xmlns="http://www.w3.org/2000/svg" xmlns:xlink="http://www.w3.org/1999/xlink" version="1.1" width="400" height="400" viewBox="0 0 400 400" xml:space="preserve">
<desc>Created with Fabric.js 3.6.2</desc>
<defs>
</defs>
<g transform="matrix(0.39 0 0 0.39 162.67 199.37)" id="Capa_1"  >
<path style="stroke: none; stroke-width: 1; stroke-dasharray: none; stroke-linecap: butt; stroke-dashoffset: 0; stroke-linejoin: miter; stroke-miterlimit: 4; fill: rgb(35,31,32); fill-rule: nonzero; opacity: 1;"  transform=" translate(-160.44, -254.4)" d="M 120.7 361.7 c 4.2 0 8.3 -2.4 10.1 -6.5 c 2.5 -5.6 0 -12.2 -5.6 -14.7 c -37.9 -17 -71.2 -40.9 -99.1 -70.9 C 52.5 242 133.7 169.4 256 169.4 c 15.6 0 33.9 1.7 51.8 4.9 c 6 1.1 11.8 -2.9 12.9 -9 c 1.1 -6 -2.9 -11.8 -9 -12.9 c -24.5 -4.4 -43.8 -5.3 -55.7 -5.3 c -141.7 0 -229.7 88 -253.3 115 c -0.1 0.1 -0.1 0.2 -0.2 0.3 c -0.3 0.3 -0.5 0.6 -0.7 1 c -0.2 0.3 -0.4 0.6 -0.5 0.9 c -0.2 0.3 -0.3 0.7 -0.5 1 c -0.1 0.3 -0.3 0.6 -0.4 1 c -0.1 0.3 -0.2 0.7 -0.2 1.1 c -0.1 0.3 -0.1 0.7 -0.2 1 c 0 0.4 0 0.7 0 1.1 s 0 0.7 0 1.1 c 0 0.3 0.1 0.7 0.2 1 c 0.1 0.4 0.1 0.7 0.2 1.1 c 0.1 0.3 0.2 0.6 0.4 1 c 0.1 0.4 0.3 0.7 0.5 1 c 0.2 0.3 0.3 0.6 0.5 0.9 c 0.2 0.3 0.4 0.7 0.7 1 c 0.1 0.1 0.1 0.2 0.2 0.3 c 31.4 35.9 69.6 64.1 113.4 83.9 C 117.6 361.4 119.2 361.7 120.7 361.7 z" stroke-linecap="round" />
</g>
<g transform="matrix(0.39 0 0 0.39 237.33 211.2)" id="Capa_1"  >
<path style="stroke: none; stroke-width: 1; stroke-dasharray: none; stroke-linecap: butt; stroke-dashoffset: 0; stroke-linejoin: miter; stroke-miterlimit: 4; fill: rgb(35,31,32); fill-rule: nonzero; opacity: 1;"  transform=" translate(-351.56, -284.67)" d="M 510.7 274.7 c 0.2 -0.3 0.3 -0.7 0.5 -1 c 0.1 -0.3 0.3 -0.6 0.4 -1 c 0.1 -0.3 0.2 -0.7 0.2 -1.1 c 0.1 -0.3 0.1 -0.7 0.2 -1 c 0 -0.4 0 -0.7 0 -1.1 s 0 -0.7 0 -1.1 c 0 -0.4 -0.1 -0.7 -0.2 -1 c -0.1 -0.4 -0.1 -0.7 -0.2 -1.1 c -0.1 -0.3 -0.2 -0.6 -0.4 -1 c -0.1 -0.4 -0.3 -0.7 -0.5 -1 c -0.2 -0.3 -0.3 -0.6 -0.5 -0.8 c -0.2 -0.3 -0.4 -0.7 -0.7 -1 c -0.1 -0.1 -0.1 -0.2 -0.2 -0.3 c -31.4 -35.9 -69.6 -64.1 -113.4 -83.9 c -5.6 -2.5 -12.2 0 -14.7 5.6 c -2.5 5.6 0 12.2 5.6 14.7 c 37.9 17 71.2 40.9 99.1 70.9 C 459.5 297.1 378.3 369.7 256 369.7 c -15.6 0 -33.9 -1.7 -51.8 -4.9 c -6 -1 -11.8 2.9 -12.9 9 c -1.1 6 2.9 11.8 9 12.9 c 24.5 4.4 43.8 5.3 55.7 5.3 c 141.7 0 229.7 -88 253.3 -115 c 0.1 -0.1 0.1 -0.2 0.2 -0.3 c 0.3 -0.3 0.5 -0.6 0.7 -1 C 510.4 275.3 510.6 275 510.7 274.7 z" stroke-linecap="round" />
</g>
<g transform="matrix(0.39 0 0 0.39 224.3 206.42)" id="Capa_1"  >
<path style="stroke: none; stroke-width: 1; stroke-dasharray: none; stroke-linecap: butt; stroke-dashoffset: 0; stroke-linejoin: miter; stroke-miterlimit: 4; fill: rgb(35,31,32); fill-rule: nonzero; opacity: 1;"  transform=" translate(-318.21, -272.43)" d="M 311.3 305.2 c 1.4 0.6 2.9 0.9 4.3 0.9 c 4.3 0 8.4 -2.5 10.2 -6.7 c 4 -9.4 6.1 -19.5 6.1 -29.8 c 0 -7.8 -1.2 -15.6 -3.6 -23.1 c -1.9 -5.8 -8.1 -9.1 -13.9 -7.2 c -5.8 1.9 -9.1 8.1 -7.2 13.9 c 1.7 5.3 2.5 10.8 2.5 16.3 c 0 7.3 -1.4 14.4 -4.3 21.1 C 303 296.3 305.7 302.8 311.3 305.2 z" stroke-linecap="round" />
</g>
<g transform="matrix(0.39 0 0 0.39 189.68 194.77)" id="Capa_1"  >
<path style="stroke: none; stroke-width: 1; stroke-dasharray: none; stroke-linecap: butt; stroke-dashoffset: 0; stroke-linejoin: miter; stroke-miterlimit: 4; fill: rgb(35,31,32); fill-rule: nonzero; opacity: 1;"  transform=" translate(-229.59, -242.6)" d="M 256 215.8 c 3.3 0 6.7 0.3 10 0.9 c 5.9 1.1 11.8 -2.8 12.9 -8.9 c 1.1 -6 -2.8 -11.8 -8.9 -12.9 c -4.6 -0.9 -9.3 -1.3 -14 -1.3 c -41.9 0 -75.9 34.1 -75.9 75.9 c 0 4.3 0.4 8.7 1.1 12.9 c 0.9 5.4 5.6 9.2 10.9 9.2 c 0.6 0 1.3 -0.1 1.9 -0.2 c 6 -1 10.1 -6.8 9.1 -12.8 c -0.5 -3 -0.8 -6.1 -0.8 -9.1 C 202.3 239.9 226.4 215.8 256 215.8 z" stroke-linecap="round" />
</g>
<g transform="matrix(0.39 0 0 0.39 201.83 229.5)" id="Capa_1"  >
<path style="stroke: none; stroke-width: 1; stroke-dasharray: none; stroke-linecap: butt; stroke-dashoffset: 0; stroke-linejoin: miter; stroke-miterlimit: 4; fill: rgb(35,31,32); fill-rule: nonzero; opacity: 1;"  transform=" translate(-260.69, -331.51)" d="M 277.9 318.6 c -11.2 5 -24.1 6 -36 2.8 c -5.9 -1.6 -12 1.9 -13.6 7.8 c -1.6 5.9 1.9 12 7.8 13.6 c 6.4 1.7 13.1 2.6 19.8 2.6 c 10.8 0 21.2 -2.2 31 -6.6 c 5.6 -2.5 8.1 -9.1 5.6 -14.7 C 290.1 318.6 283.5 316.1 277.9 318.6 z" stroke-linecap="round" />
</g>
<g transform="matrix(0.39 0 0 0.39 200 205.27)" id="Capa_1"  >
<path style="stroke: none; stroke-width: 1; stroke-dasharray: none; stroke-linecap: butt; stroke-dashoffset: 0; stroke-linejoin: miter; stroke-miterlimit: 4; fill: rgb(35,31,32); fill-rule: nonzero; opacity: 1;"  transform=" translate(-255.99, -269.49)" d="M 435.7 89.8 c -4.3 -4.3 -11.4 -4.3 -15.7 0 L 76.3 433.5 c -4.3 4.3 -4.3 11.4 0 15.7 c 2.2 2.2 5 3.2 7.8 3.2 c 2.8 0 5.7 -1.1 7.8 -3.2 l 343.7 -343.7 C 440 101.2 440 94.2 435.7 89.8 z" stroke-linecap="round" />
</g>
</svg>